<?xml version="1.0" encoding="UTF-8"?> <!-- Generator: Adobe Illustrator 23.0.3, SVG Export Plug-In . SVG Version: 6.00 Build 0) --> <svg xmlns="http://www.w3.org/2000/svg" xmlns:xlink="http://www.w3.org/1999/xlink" id="Layer_1" x="0px" y="0px" viewBox="0 0 500 300" style="enable-background:new 0 0 500 300;" xml:space="preserve"> <style type="text/css"> .st0{fill:#FFFFFF;} </style> <path class="st0" d="M179.89,125.31v35.07c0,3.46-2.81,6.27-6.27,6.27h-25.05c-3.46,0-6.27-2.81-6.27-6.27v-32.54 c0-6.25,5.07-11.32,11.32-11.32h17.47C175.95,116.51,179.89,120.45,179.89,125.31z M154.84,135.33v12.55c0,3.46,2.81,6.27,6.27,6.27 h0c3.46,0,6.27,0.5,6.27-6.27v-12.55c0-3.46-2.81-6.27-6.27-6.27h0C157.65,129.06,154.84,131.86,154.84,135.33z"></path> <path class="st0" d="M208.14,129.06h-0.05c-3.45,0-6.42-1.24-6.25,6.25v25.09c1.26,4.55-2.8,6.25-6.25,6.25h-0.05 c-3.45,0-6.25-1.34-6.25-6.25v-34.74c0-5.05,2.67-12.21,9.15-9.15h45.61c4.38,0,7.93,3.55,7.93,7.93v35.96 c1.07,6.25-2.8,6.25-6.25,6.25h0c-3.45,0-6.25-2.8-6.25-6.25v-25.09c0-3.45-2.8-6.25-6.25-6.25h-0.05c-3.45,0-6.25,2.8-6.25,6.25 v25.09c0,3.45-2.8,6.25-6.25,6.25h-0.05c-3.45,0-6.25-2.8-6.25-6.25v-25.09C215.56,131.41,211.59,129.06,208.14,129.06z"></path> <path class="st0" d="M268.46,166.65h-1.6c-3.02,0-6.37,0-5.47-5.47v-39.2c0-3.02,2.45-5.47,5.47-5.47h19.62 c6.91,0,12.51,5.6,12.51,12.51v32.16c0,3.02-2.45,5.47-5.47,5.47h-1.55c-3.02,0-5.47-2.45-5.47-5.47v-26.65 c0-3.02-2.45-5.47-5.47-5.47h-1.6c-3.02,0-5.47,2.45-5.47,5.47v26.65C273.93,164.2,271.48,166.65,268.46,166.65z"></path> <path class="st0" d="M312.8,116.51h9.89c1.75,0,3.17,1.42,3.17,3.17v43.8c0,3.17-1.42,3.17-3.17,3.17h-4.82 c-2.52,0-4.56-2.04-4.56-4.56v-29.86c0-1.75-1.42-3.17-3.17-3.17l0,0c-1.02-0.05-3.17-1.42-3.17-3.17v-3.55 C306.97,119.12,309.58,116.51,312.8,116.51z M322.69,111.34h-6.16c-1.75,0-3.17-1.42-3.17-3.17v-4.14c0-1.75,1.42-3.17,3.17-3.17 l6.12,0.85c1.75,0,3.21,0.57,3.21,2.33v4.14C325.86,109.92,324.44,111.34,322.69,111.34z"></path> <path class="st0" d="M340.73,116.51h22.57c5.28,0,9.55,4.28,9.55,9.55v35.11c0,5.48-2.45,5.48-5.48,5.48h-14.14 c-3.02,0-5.48,2.45-5.48,5.48l0,0c0,3.02-2.45,5.48-5.48,5.48h-1.55c-3.02,0-5.48-2.45-5.48-5.48v-50.14 C335.26,118.96,334.27,116.51,340.73,116.51z M360.35,148.63v-14.14c0-3.02-2.45-5.48-5.48-5.48h-1.6c-3.02,0-5.48,2.45-5.48,5.48 l-0.96,13.88c0,3.02,3.41,5.74,6.43,5.74h1.6C357.9,154.1,360.35,151.65,360.35,148.63z"></path> <path class="st0" d="M403.77,129.06h-15.83c-3.14,0-5.69-2.55-5.69-5.69v-4.16c0-1.49,1.21-2.7,2.7-2.7h28.12 c3.74,0,6.77,3.03,6.77,6.77v38.75c0,2.55-2.07,4.62-4.62,4.62h-29.44c-1.95,0-3.54-1.58-3.54-3.54v-20.9 c0-3.37,2.74-6.11,6.11-6.11h15.41c1.95,0,3.52-1.58,3.52-3.52l0,0C407.3,130.63,405.72,129.06,403.77,129.06z M407.3,150.63v-1.41 c0-1.95-1.58-3.52-3.52-3.52h-5.45c-1.95,0-3.52,1.58-3.52,3.52v1.41c0,1.95,1.58,3.52,3.52,3.52h5.45 C405.72,154.15,407.3,152.57,407.3,150.63z"></path> <path class="st0" d="M451.62,135.3l5.85-16.36c0.52-1.46,1.91-2.44,3.46-2.44h5.74c2.58,0,4.35,2.59,3.43,4.99l-7.21,18.74 c-0.33,0.85-0.33,1.79,0,2.63l6.07,15.82c1.47,3.84-1.36,7.96-5.47,7.96h-2.56c-1.55,0-2.94-0.98-3.46-2.44l-6.09-15.94l-3.14-0.42 l-5.85,16.36c-0.52,1.46-1.91,2.44-3.46,2.44h-5.74c-2.58,0-4.35-2.58-3.43-4.99l7.21-18.79c0.33-0.85,0.33-1.79,0-2.63l-6.39-16.62 c-1.32-3.43,1.21-7.11,4.88-7.11h3.47c1.55,0,2.94,0.97,3.46,2.44l6.15,16.11L451.62,135.3z"></path> <g> <path class="st0" d="M75.62,167.58c17.14-0.78,34.13-1.45,51.29-0.58c1.47,0.07,1.97-1.88,1.07-2.72c2.71-1.62,2.42-6.66,2.6-9.2 c0.75-10.52,1.02-21.09,1.27-31.64c0.28-11.69,0.5-23.41,0.02-35.09c-0.3-7.24-0.17-15.69-2.59-22.63 c-0.17-0.49-0.59-0.79-1.06-0.9c-0.18-0.15-0.4-0.28-0.68-0.36c-21.63-6.42-44.69-2.3-66.89-2.82c-7.52-0.17-14.97-0.83-22.44-1.56 c-2.22-0.21-6.8-1.2-8.46,1.1c-0.6,0.17-1.08,0.63-1.03,1.39c1.66,21.14-1.63,42.17-1.14,63.32c0.2,8.74,0.67,17.45,0.66,26.2 c0,3.92-0.62,8.38,0.34,12.24c0.03,0.28,0.11,0.52,0.23,0.75c0.03,0.06,0.06,0.11,0.09,0.17c0,0,0,0,0,0.01 c0.44,0.76,1.21,1.07,1.98,1.04c0.15,0.01,0.3-0.01,0.45-0.03c0.19,0.12,0.39,0.23,0.64,0.28 C46.15,169.47,61.27,168.23,75.62,167.58L75.62,167.58z M33.58,152.09c0.02-8.74-0.34-17.46-0.65-26.2 c-0.7-20.21,3.6-40.94-0.59-60.9c0.13,0.01,0.26,0.03,0.4,0.05c0.22,0.03,0.43-0.02,0.62-0.09c0.53-0.03,1.08-0.06,1.38-0.05 c2.38,0.12,4.76,0.4,7.12,0.63c6.25,0.61,12.51,0.95,18.78,1.14c22.02,0.67,44.14-2.85,65.99,1.05c0.02,0,0.03,0,0.05,0 c1.95,16.81,0.29,34.66-0.05,51.48c-0.2,10.12-0.53,20.25-1.06,30.36c-0.17,3.24-0.39,6.48-0.66,9.72 c-0.12,1.45-0.37,4.05,0.48,2.77c-0.32,0.49-0.31,1.05-0.09,1.54c-14.09-2.54-28.46-1.93-42.7-1.28c-16.5,0.74-32.58,0.95-49.05,0 C33.98,158.96,33.58,155.34,33.58,152.09L33.58,152.09z M33.58,152.09"></path> </g> <path class="st0" d="M93.91,108.21c9.54-13.34-6.09-28.68-18.4-32.2c-17.09-4.89-33.39,7.44-34.95,24.84 C37.64,133.59,90.36,142.08,93.91,108.21L93.91,108.21z M88.48,106.89c-1.54,11.94-10.72,17.26-20.13,17.11 c1.04-1.21,1.85-2.58,2.82-3.91c1.98-2.7,4.29-5.18,6.59-7.61c3.99-4.22,8.4-8.05,12.99-11.62c0.06,1.15,0.1,2.3,0.14,3.48 C89.74,104.58,88.66,105.43,88.48,106.89L88.48,106.89z M67.06,80.93c-0.63,0.41-1.22,0.85-1.74,1.19c-3.4,2.18-6.61,4.73-9.76,7.25 c-2.91,2.32-5.74,4.74-8.48,7.25C49.67,87.66,57.7,81.49,67.06,80.93L67.06,80.93z M46.23,104.18c-0.02-0.34,0.01-0.67,0.01-1.01 C50,99.9,53.32,95.83,57,92.48c2.96-2.71,5.97-5.35,9.07-7.9c1.35-1.11,3.08-2.19,4.18-3.6c0.69,0.05,1.38,0.11,2.08,0.23 c1.61,0.27,3.16,0.72,4.65,1.31c-6.3,4.52-12.38,9.23-18.13,14.45c-3.41,3.1-6.39,6.51-9.39,9.98c-0.63,0.74-1.55,1.41-2.36,2.16 C46.63,107.57,46.32,105.94,46.23,104.18L46.23,104.18z M50.37,111.4c0.66-0.73,1.35-1.44,1.95-2.23c2.71-3.56,5.43-6.97,8.52-10.2 c5.48-5.75,11.96-10.63,18.18-15.53c1.63,0.82,3.15,1.84,4.58,2.98c-7.38,2.98-13.56,8.33-19.41,13.6 c-3.39,3.04-6.61,6.26-9.82,9.48c-1.06,1.05-2.35,2.08-3.37,3.25C51,112.23,50.8,111.7,50.37,111.4L50.37,111.4z M51.96,117.24 c1.74-0.69,2.94-2.55,4.18-3.9c2.58-2.82,5.19-5.61,7.84-8.35c6.16-6.37,12.82-13,20.89-16.89c0.15-0.07,0.25-0.18,0.33-0.29 c0.47,0.44,0.94,0.89,1.38,1.37c2.68,2.9,3.6,6.09,3.98,9.43c-4.8,3.15-9.36,6.6-13.72,10.35c-4.25,3.66-11.07,8.96-12.61,14.63 C59.64,122.72,55.25,120.58,51.96,117.24L51.96,117.24z M51.96,117.24"></path> <path class="st0" d="M61.54,121.06c1.2-0.32,1.34-1.6,0.76-2.39c0.1-0.16,0.21-0.33,0.36-0.58c0.71-1.15,1.66-2.16,2.54-3.17 c2.58-2.96,5.41-5.68,8.23-8.41c4.68-4.53,9.85-8.86,13.9-14c0.74-0.94-0.52-2.3-1.35-1.36c-6.22,7.07-14.04,13.12-21,19.45 c-2.3,2.08-5.62,4.55-6.62,7.62C57.66,120.37,59.72,121.55,61.54,121.06L61.54,121.06z M61.54,121.06"></path> <g> <path class="st0" d="M39.54,218.74c-3.78,0-6.53-1.41-8.26-4.24h-0.16l0.07,1.9c0.06,1.11,0.09,2.33,0.09,3.66v9.35h-2.23v-35.65 h1.9l0.43,3.5h0.14c1.69-2.65,4.38-3.97,8.08-3.97c3.31,0,5.84,1.09,7.57,3.26s2.61,5.34,2.61,9.49c0,4.03-0.91,7.16-2.74,9.38 C45.2,217.63,42.7,218.74,39.54,218.74z M39.5,216.76c2.51,0,4.46-0.93,5.84-2.8c1.38-1.87,2.07-4.48,2.07-7.83 c0-7.21-2.6-10.81-7.81-10.81c-2.86,0-4.96,0.79-6.3,2.36c-1.34,1.57-2.01,4.13-2.01,7.69v0.72c0,3.84,0.64,6.58,1.93,8.22 C34.5,215.94,36.59,216.76,39.5,216.76z"></path> <path class="st0" d="M73.78,218.29l-0.56-3.88h-0.18c-1.23,1.58-2.5,2.7-3.8,3.35c-1.3,0.65-2.84,0.98-4.62,0.98 c-2.41,0-4.28-0.62-5.62-1.85c-1.34-1.23-2.01-2.94-2.01-5.13c0-2.39,1-4.25,2.99-5.58c1.99-1.32,4.88-2.02,8.66-2.1l4.67-0.14 v-1.63c0-2.33-0.47-4.09-1.42-5.28c-0.95-1.19-2.48-1.78-4.58-1.78c-2.27,0-4.63,0.63-7.07,1.9l-0.84-1.94 c2.69-1.26,5.36-1.9,7.99-1.9c2.69,0,4.71,0.7,6.04,2.1c1.33,1.4,2,3.58,2,6.55v16.32H73.78z M64.75,216.71 c2.62,0,4.68-0.75,6.2-2.25c1.51-1.5,2.27-3.58,2.27-6.24v-2.42l-4.29,0.18c-3.45,0.17-5.9,0.7-7.37,1.61 c-1.47,0.91-2.2,2.33-2.2,4.25c0,1.54,0.47,2.73,1.41,3.58C61.7,216.29,63.03,216.71,64.75,216.71z"></path> <path class="st0" d="M95.48,218.74c-3.51,0-6.25-1.11-8.24-3.32c-1.99-2.21-2.98-5.3-2.98-9.26c0-4.06,1.03-7.23,3.09-9.49 c2.06-2.26,4.88-3.4,8.47-3.4c2.12,0,4.15,0.37,6.1,1.11l-0.61,1.99c-2.12-0.71-3.97-1.06-5.53-1.06c-3.01,0-5.29,0.93-6.84,2.79 c-1.55,1.86-2.33,4.53-2.33,8.03c0,3.31,0.77,5.9,2.33,7.78c1.55,1.87,3.72,2.81,6.5,2.81c2.23,0,4.3-0.4,6.21-1.2v2.08 C100.08,218.36,98.02,218.74,95.48,218.74z"></path> <path class="st0" d="M112.15,207.52l12.53-13.77h2.71l-9.66,10.48l10.5,14.07h-2.69l-9.32-12.39l-4.02,3.66v8.74h-2.23v-35.13h2.23 v17.61l-0.16,6.75H112.15z"></path> <path class="st0" d="M149.55,218.29l-0.56-3.88h-0.18c-1.23,1.58-2.5,2.7-3.8,3.35c-1.3,0.65-2.84,0.98-4.62,0.98 c-2.41,0-4.28-0.62-5.62-1.85c-1.34-1.23-2.01-2.94-2.01-5.13c0-2.39,1-4.25,2.99-5.58c1.99-1.32,4.88-2.02,8.66-2.1l4.67-0.14 v-1.63c0-2.33-0.47-4.09-1.42-5.28c-0.95-1.19-2.48-1.78-4.58-1.78c-2.27,0-4.63,0.63-7.07,1.9l-0.84-1.94 c2.69-1.26,5.36-1.9,7.99-1.9c2.69,0,4.71,0.7,6.04,2.1c1.33,1.4,2,3.58,2,6.55v16.32H149.55z M140.52,216.71 c2.62,0,4.68-0.75,6.2-2.25c1.51-1.5,2.27-3.58,2.27-6.24v-2.42l-4.29,0.18c-3.45,0.17-5.9,0.7-7.37,1.61 c-1.47,0.91-2.2,2.33-2.2,4.25c0,1.54,0.47,2.73,1.41,3.58C137.47,216.29,138.8,216.71,140.52,216.71z"></path> <path class="st0" d="M180.6,193.75v1.56l-5.08,0.32c1.35,1.69,2.03,3.54,2.03,5.55c0,2.36-0.79,4.28-2.36,5.75s-3.68,2.2-6.33,2.2 c-1.11,0-1.9-0.04-2.35-0.14c-0.89,0.47-1.57,1.02-2.03,1.65c-0.47,0.63-0.7,1.3-0.7,2.01c0,0.78,0.3,1.36,0.89,1.72 c0.59,0.36,1.59,0.54,2.99,0.54h4.29c2.66,0,4.7,0.54,6.12,1.61c1.41,1.08,2.12,2.67,2.12,4.78c0,2.59-1.05,4.59-3.15,5.99 c-2.1,1.41-5.09,2.11-8.97,2.11c-3.09,0-5.47-0.59-7.17-1.78c-1.69-1.19-2.54-2.84-2.54-4.97c0-1.69,0.52-3.09,1.57-4.2 c1.05-1.11,2.46-1.87,4.26-2.28c-0.74-0.32-1.33-0.76-1.77-1.34c-0.44-0.58-0.67-1.25-0.67-2c0-1.64,1.05-3.08,3.14-4.33 c-1.43-0.59-2.54-1.51-3.34-2.77c-0.8-1.26-1.2-2.7-1.2-4.32c0-2.45,0.78-4.42,2.34-5.9s3.66-2.22,6.31-2.22 c1.61,0,2.86,0.16,3.75,0.47H180.6z M160.73,222.45c0,3.37,2.51,5.06,7.52,5.06c6.44,0,9.66-2.05,9.66-6.16 c0-1.48-0.5-2.54-1.51-3.21c-1.01-0.66-2.64-0.99-4.9-0.99h-4.02C162.98,217.14,160.73,218.91,160.73,222.45z M162.6,201.4 c0,1.9,0.58,3.37,1.73,4.41c1.15,1.05,2.69,1.57,4.62,1.57c2.05,0,3.62-0.52,4.71-1.56c1.09-1.04,1.64-2.54,1.64-4.52 c0-2.09-0.56-3.66-1.68-4.71s-2.69-1.57-4.71-1.57c-1.96,0-3.5,0.56-4.62,1.68C163.17,197.84,162.6,199.4,162.6,201.4z"></path> <path class="st0" d="M187.63,186.93c0-1.45,0.47-2.17,1.42-2.17c0.47,0,0.83,0.19,1.09,0.56c0.26,0.38,0.4,0.91,0.4,1.6 c0,0.68-0.13,1.21-0.4,1.6c-0.26,0.39-0.63,0.59-1.09,0.59C188.1,189.12,187.63,188.39,187.63,186.93z M190.18,218.29h-2.23v-24.54 h2.23V218.29z"></path> <path class="st0" d="M217.82,218.29v-15.92c0-2.47-0.52-4.26-1.56-5.38s-2.65-1.68-4.83-1.68c-2.93,0-5.08,0.74-6.45,2.22 c-1.36,1.48-2.04,3.89-2.04,7.21v13.55h-2.23v-24.54h1.9l0.43,3.36h0.14c1.6-2.56,4.43-3.84,8.51-3.84c5.57,0,8.35,2.99,8.35,8.96 v16.05H217.82z"></path> <path class="st0" d="M249.44,193.75v1.56l-5.08,0.32c1.35,1.69,2.03,3.54,2.03,5.55c0,2.36-0.79,4.28-2.36,5.75s-3.68,2.2-6.33,2.2 c-1.11,0-1.9-0.04-2.35-0.14c-0.89,0.47-1.57,1.02-2.03,1.65c-0.47,0.63-0.7,1.3-0.7,2.01c0,0.78,0.3,1.36,0.89,1.72 c0.59,0.36,1.59,0.54,2.99,0.54h4.29c2.66,0,4.7,0.54,6.12,1.61c1.41,1.08,2.12,2.67,2.12,4.78c0,2.59-1.05,4.59-3.15,5.99 c-2.1,1.41-5.09,2.11-8.97,2.11c-3.09,0-5.47-0.59-7.17-1.78c-1.69-1.19-2.54-2.84-2.54-4.97c0-1.69,0.52-3.09,1.57-4.2 c1.05-1.11,2.46-1.87,4.26-2.28c-0.74-0.32-1.33-0.76-1.77-1.34c-0.44-0.58-0.67-1.25-0.67-2c0-1.64,1.05-3.08,3.14-4.33 c-1.43-0.59-2.54-1.51-3.34-2.77c-0.8-1.26-1.2-2.7-1.2-4.32c0-2.45,0.78-4.42,2.34-5.9s3.66-2.22,6.31-2.22 c1.61,0,2.86,0.16,3.75,0.47H249.44z M229.57,222.45c0,3.37,2.51,5.06,7.52,5.06c6.44,0,9.66-2.05,9.66-6.16 c0-1.48-0.5-2.54-1.51-3.21c-1.01-0.66-2.64-0.99-4.9-0.99h-4.02C231.82,217.14,229.57,218.91,229.57,222.45z M231.44,201.4 c0,1.9,0.58,3.37,1.73,4.41c1.15,1.05,2.69,1.57,4.62,1.57c2.05,0,3.62-0.52,4.71-1.56c1.09-1.04,1.64-2.54,1.64-4.52 c0-2.09-0.56-3.66-1.68-4.71s-2.69-1.57-4.71-1.57c-1.96,0-3.5,0.56-4.62,1.68C232.01,197.84,231.44,199.4,231.44,201.4z"></path> <path class="st0" d="M286.32,211.9c0,2.2-0.83,3.89-2.51,5.07s-4.04,1.77-7.11,1.77c-3.28,0-5.88-0.5-7.81-1.51v-2.42 c2.47,1.23,5.07,1.85,7.81,1.85c2.42,0,4.26-0.4,5.52-1.21c1.26-0.81,1.89-1.88,1.89-3.22c0-1.23-0.5-2.27-1.5-3.12 s-2.65-1.67-4.93-2.48c-2.45-0.89-4.18-1.65-5.17-2.29c-0.99-0.64-1.74-1.36-2.25-2.17c-0.5-0.8-0.76-1.79-0.76-2.95 c0-1.84,0.77-3.29,2.31-4.36c1.54-1.07,3.7-1.6,6.47-1.6c2.65,0,5.16,0.5,7.54,1.49l-0.84,2.03c-2.41-0.99-4.64-1.49-6.71-1.49 c-2,0-3.59,0.33-4.76,0.99s-1.76,1.58-1.76,2.75c0,1.28,0.46,2.3,1.37,3.07c0.91,0.77,2.69,1.63,5.34,2.57 c2.21,0.8,3.82,1.52,4.83,2.16c1.01,0.64,1.76,1.37,2.27,2.18C286.07,209.85,286.32,210.8,286.32,211.9z"></path> <path class="st0" d="M315.25,205.99c0,4-0.97,7.13-2.91,9.38c-1.94,2.25-4.62,3.38-8.04,3.38c-2.15,0-4.05-0.52-5.69-1.56 c-1.64-1.04-2.9-2.53-3.77-4.47s-1.31-4.18-1.31-6.73c0-4,0.97-7.12,2.91-9.36s4.61-3.35,7.99-3.35c3.37,0,6.02,1.13,7.94,3.4 C314.29,198.94,315.25,202.04,315.25,205.99z M295.88,205.99c0,3.37,0.74,6,2.22,7.89c1.48,1.89,3.58,2.83,6.29,2.83 s4.8-0.94,6.29-2.83c1.48-1.89,2.22-4.52,2.22-7.89c0-3.39-0.75-6.01-2.25-7.88c-1.5-1.87-3.6-2.8-6.31-2.8s-4.8,0.93-6.27,2.79 C296.62,199.96,295.88,202.59,295.88,205.99z"></path> <path class="st0" d="M326.59,218.29h-2.23v-35.13h2.23V218.29z"></path> <path class="st0" d="M339.07,193.75v15.89c0,2.47,0.52,4.26,1.56,5.38c1.04,1.12,2.65,1.68,4.83,1.68c2.92,0,5.07-0.74,6.45-2.21 c1.38-1.47,2.07-3.88,2.07-7.2v-13.55h2.21v24.54h-1.9l-0.41-3.39h-0.13c-1.6,2.56-4.43,3.84-8.51,3.84 c-5.58,0-8.38-2.99-8.38-8.96v-16.03H339.07z"></path> <path class="st0" d="M373.19,216.76c1.42,0,2.65-0.12,3.7-0.36v1.81c-1.08,0.36-2.33,0.54-3.75,0.54c-2.17,0-3.77-0.58-4.8-1.74 c-1.03-1.16-1.55-2.98-1.55-5.46v-15.85h-3.63v-1.31l3.63-1.02l1.13-5.55h1.15v5.94h7.2v1.94h-7.2v15.53 c0,1.88,0.33,3.27,0.99,4.18S371.77,216.76,373.19,216.76z"></path> <path class="st0" d="M384.19,186.93c0-1.45,0.47-2.17,1.42-2.17c0.47,0,0.83,0.19,1.1,0.56c0.26,0.38,0.39,0.91,0.39,1.6 c0,0.68-0.13,1.21-0.39,1.6c-0.26,0.39-0.63,0.59-1.1,0.59C384.67,189.12,384.19,188.39,384.19,186.93z M386.74,218.29h-2.23 v-24.54h2.23V218.29z"></path> <path class="st0" d="M417.57,205.99c0,4-0.97,7.13-2.91,9.38c-1.94,2.25-4.62,3.38-8.04,3.38c-2.15,0-4.05-0.52-5.69-1.56 c-1.64-1.04-2.9-2.53-3.77-4.47s-1.31-4.18-1.31-6.73c0-4,0.97-7.12,2.91-9.36s4.61-3.35,7.99-3.35c3.37,0,6.02,1.13,7.94,3.4 C416.61,198.94,417.57,202.04,417.57,205.99z M398.2,205.99c0,3.37,0.74,6,2.22,7.89c1.48,1.89,3.58,2.83,6.29,2.83 s4.8-0.94,6.29-2.83c1.48-1.89,2.22-4.52,2.22-7.89c0-3.39-0.75-6.01-2.25-7.88c-1.5-1.87-3.6-2.8-6.31-2.8s-4.8,0.93-6.27,2.79 C398.93,199.96,398.2,202.59,398.2,205.99z"></path> <path class="st0" d="M443.79,218.29v-15.92c0-2.47-0.52-4.26-1.56-5.38s-2.65-1.68-4.83-1.68c-2.94,0-5.08,0.74-6.45,2.22 s-2.04,3.89-2.04,7.21v13.55h-2.23v-24.54h1.9l0.43,3.36h0.13c1.6-2.56,4.43-3.84,8.51-3.84c5.57,0,8.35,2.99,8.35,8.96v16.05 H443.79z"></path> <path class="st0" d="M471.48,211.9c0,2.2-0.83,3.89-2.51,5.07s-4.04,1.77-7.11,1.77c-3.28,0-5.88-0.5-7.81-1.51v-2.42 c2.47,1.23,5.07,1.85,7.81,1.85c2.42,0,4.26-0.4,5.52-1.21c1.26-0.81,1.89-1.88,1.89-3.22c0-1.23-0.5-2.27-1.5-3.12 s-2.65-1.67-4.93-2.48c-2.45-0.89-4.18-1.65-5.17-2.29c-0.99-0.64-1.74-1.36-2.25-2.17c-0.5-0.8-0.76-1.79-0.76-2.95 c0-1.84,0.77-3.29,2.31-4.36c1.54-1.07,3.7-1.6,6.47-1.6c2.65,0,5.16,0.5,7.54,1.49l-0.84,2.03c-2.41-0.99-4.64-1.49-6.71-1.49 c-2,0-3.59,0.33-4.76,0.99s-1.76,1.58-1.76,2.75c0,1.28,0.46,2.3,1.37,3.07c0.91,0.77,2.69,1.63,5.34,2.57 c2.21,0.8,3.82,1.52,4.83,2.16c1.01,0.64,1.76,1.37,2.27,2.18C471.22,209.85,471.48,210.8,471.48,211.9z"></path> </g> </svg> 